<?xml version="1.0" encoding="iso-8859-1"?>
<!-- Generator: Adobe Illustrator 19.0.0, SVG Export Plug-In . SVG Version: 6.00 Build 0)  -->
<svg version="1.1" id="Layer_1" xmlns="http://www.w3.org/2000/svg" xmlns:xlink="http://www.w3.org/1999/xlink" x="0px" y="0px"
	 viewBox="0 0 45.341 45.341" style="enable-background:new 0 0 45.341 45.341;" xml:space="preserve">
<g>
	<path style="fill:#E34326;" d="M22.671,45.341c-3.236,0-6.24-2.421-8.458-6.819c-2.14-4.246-3.317-9.874-3.317-15.851
		c0-5.976,1.178-11.604,3.317-15.849C16.431,2.422,19.435,0,22.671,0c3.237,0,6.239,2.422,8.456,6.821
		c2.141,4.245,3.32,9.873,3.32,15.849c0,5.977-1.18,11.605-3.32,15.851C28.91,42.92,25.908,45.341,22.671,45.341z M22.671,1.399
		c-2.681,0-5.24,2.148-7.208,6.051c-2.043,4.056-3.169,9.459-3.169,15.22c0,5.764,1.126,11.168,3.169,15.222
		c1.968,3.902,4.527,6.052,7.208,6.052s5.24-2.149,7.207-6.052c2.044-4.054,3.17-9.458,3.17-15.222c0-5.761-1.126-11.164-3.17-15.22
		C27.911,3.548,25.352,1.399,22.671,1.399z"/>
	<path style="fill:#FFCC3B;" d="M33.031,41.006c-5.558,0-12.781-3.771-18.854-9.842C5.098,22.08,1.713,11.237,6.476,6.476
		c1.399-1.399,3.417-2.14,5.834-2.14c5.558,0,12.781,3.773,18.853,9.841c9.081,9.084,12.466,19.929,7.705,24.69
		C37.466,40.266,35.449,41.006,33.031,41.006z M12.31,6.201c-1.938,0-3.458,0.536-4.514,1.594
		c-3.889,3.887-0.361,13.985,7.701,22.049c5.649,5.647,12.53,9.297,17.534,9.297c1.939,0,3.458-0.537,4.516-1.593
		c3.89-3.889,0.36-13.986-7.703-22.05C24.195,9.851,17.313,6.201,12.31,6.201z"/>
	<path style="fill:#FFCC3B;" d="M12.31,41.006c-2.417,0-4.436-0.74-5.834-2.139c-4.763-4.762-1.378-15.606,7.702-24.69
		C20.25,8.11,27.474,4.336,33.032,4.336c2.416,0,4.434,0.74,5.836,2.142c2.352,2.352,2.784,6.273,1.213,11.04
		c-1.499,4.549-4.666,9.395-8.918,13.646C25.091,37.234,17.866,41.006,12.31,41.006z M33.031,6.201
		c-5.005,0-11.886,3.649-17.534,9.297c-8.063,8.064-11.591,18.161-7.701,22.05c1.056,1.056,2.575,1.593,4.514,1.593
		c5.004,0,11.886-3.649,17.534-9.297c4.048-4.049,7.055-8.634,8.465-12.912c1.339-4.063,1.067-7.306-0.762-9.136
		C36.489,6.737,34.971,6.201,33.031,6.201z"/>
	<path style="fill:#E34326;" d="M22.671,34.447c-5.976,0-11.606-1.18-15.851-3.319C2.421,28.91,0,25.906,0,22.67
		c0-3.234,2.421-6.239,6.82-8.457c4.245-2.14,9.875-3.316,15.851-3.316s11.604,1.177,15.852,3.316
		c4.397,2.218,6.818,5.223,6.818,8.457c0,3.236-2.421,6.24-6.818,8.458C34.275,33.268,28.646,34.447,22.671,34.447z M22.671,12.294
		c-5.762,0-11.167,1.126-15.221,3.169c-3.902,1.968-6.052,4.526-6.052,7.207c0,2.683,2.149,5.241,6.052,7.208
		c4.054,2.044,9.459,3.171,15.221,3.171c5.763,0,11.168-1.127,15.221-3.171c3.901-1.967,6.051-4.525,6.051-7.208
		c0-2.681-2.149-5.239-6.051-7.207C33.839,13.42,28.434,12.294,22.671,12.294z"/>
	<circle style="fill:#009658;" cx="23.065" cy="22.387" r="3.744"/>
	<circle style="fill:#E34326;" cx="15.75" cy="39.443" r="3.121"/>
	<circle style="fill:#414042;" cx="33.747" cy="21.91" r="2.408"/>
	<circle style="fill:#414042;" cx="18.158" cy="11.594" r="2.408"/>
	<circle style="fill:#E34326;" cx="6.665" cy="7.612" r="3.121"/>
</g>
<g>
</g>
<g>
</g>
<g>
</g>
<g>
</g>
<g>
</g>
<g>
</g>
<g>
</g>
<g>
</g>
<g>
</g>
<g>
</g>
<g>
</g>
<g>
</g>
<g>
</g>
<g>
</g>
<g>
</g>
</svg>
