<?xml version="1.0" encoding="iso-8859-1"?>
<!-- Generator: Adobe Illustrator 16.0.0, SVG Export Plug-In . SVG Version: 6.00 Build 0)  -->
<!DOCTYPE svg PUBLIC "-//W3C//DTD SVG 1.1//EN" "http://www.w3.org/Graphics/SVG/1.1/DTD/svg11.dtd">
<svg xmlns="http://www.w3.org/2000/svg" xmlns:xlink="http://www.w3.org/1999/xlink" version="1.1" id="Capa_1" x="0px" y="0px" width="512px" height="512px" viewBox="0 0 319.031 319.031" style="enable-background:new 0 0 319.031 319.031;" xml:space="preserve">
<g>
	<g id="Artwork_94_">
		<g id="Layer_5_94_">
			<g>
				<path d="M129.97,163.321c-7.772,0-12.704,8.665-13.87,8.665c-1.021,0-5.751-8.665-13.872-8.665      c-7.899,0-14.35,6.516-14.771,14.403c-0.239,4.457,1.197,7.848,3.222,10.922c4.045,6.135,21.729,20.908,25.448,20.908      c3.799,0,21.322-14.72,25.392-20.908c2.029-3.088,3.461-6.465,3.223-10.922C144.32,169.836,137.869,163.321,129.97,163.321" fill="#FFDA44"/>
				<path d="M207.859,209.555c-8.111,0-13.258,9.043-14.475,9.043c-1.066,0-6.002-9.043-14.479-9.043      c-8.243,0-14.977,6.799-15.416,15.033c-0.249,4.65,1.251,8.189,3.363,11.395c4.221,6.404,22.676,21.824,26.558,21.824      c3.963,0,22.253-15.363,26.501-21.824c2.117-3.221,3.611-6.743,3.363-11.395C222.836,216.354,216.104,209.555,207.859,209.555" fill="#FFDA44"/>
				<path d="M194.508,117.017c-6.66,0-10.885,7.424-11.884,7.424c-0.875,0-4.927-7.424-11.885-7.424      c-6.769,0-12.294,5.581-12.656,12.342c-0.204,3.817,1.026,6.723,2.761,9.354c3.465,5.259,18.615,17.918,21.803,17.918      c3.254,0,18.27-12.612,21.756-17.918c1.738-2.645,2.968-5.536,2.762-9.354C206.801,122.598,201.275,117.017,194.508,117.017" fill="#FFDA44"/>
				<path d="M275.66,66.729h-80.62l57.075-58.772c0.936-0.834,1.543-2.039,1.543-3.393c0-2.523-2.049-4.564-4.562-4.564      c-1.596,0-2.996,0.824-3.811,2.063l-62.803,64.666h-3.197L113.127,2.478c-0.834-0.937-2.041-1.541-3.395-1.541      c-2.523,0-4.563,2.044-4.563,4.562c0,1.597,0.822,2.994,2.055,3.81l59.131,57.421H43.371c-13.51,0-24.5,10.991-24.5,24.5      v183.165c0,13.51,10.99,24.5,24.5,24.5h49.516c-0.715,1.717-1.111,3.596-1.111,5.568c0,8.033,6.535,14.568,14.572,14.568h106.33      c8.033,0,14.568-6.535,14.568-14.568c0-1.973-0.398-3.852-1.111-5.568h49.525c13.51,0,24.5-10.99,24.5-24.5V91.229      C300.16,77.72,289.17,66.729,275.66,66.729z M270.865,259.377c0,7.044-5.881,12.773-13.109,12.773H61.276      c-7.229,0-13.109-5.729-13.109-12.773v-150.97c0-7.045,5.881-12.775,13.109-12.775h196.478c7.23,0,13.111,5.73,13.111,12.775      V259.377L270.865,259.377z" fill="#FFDA44"/>
			</g>
		</g>
	</g>
</g>
<g>
</g>
<g>
</g>
<g>
</g>
<g>
</g>
<g>
</g>
<g>
</g>
<g>
</g>
<g>
</g>
<g>
</g>
<g>
</g>
<g>
</g>
<g>
</g>
<g>
</g>
<g>
</g>
<g>
</g>
</svg>
