<?xml version="1.0" encoding="iso-8859-1"?>
<!-- Generator: Adobe Illustrator 19.0.0, SVG Export Plug-In . SVG Version: 6.00 Build 0)  -->
<svg version="1.1" id="Layer_1" xmlns="http://www.w3.org/2000/svg" xmlns:xlink="http://www.w3.org/1999/xlink" x="0px" y="0px"
	 viewBox="0 0 508 508" style="enable-background:new 0 0 508 508;" xml:space="preserve">
<circle style="fill:#FD8469;" cx="254" cy="254" r="254"/>
<g>
	<path style="fill:#FFFFFF;" d="M99.4,114.6h15.1V160h-8v-36.8h-7.1V114.6z"/>
	<path style="fill:#FFFFFF;" d="M137.8,160.5c-5.2,0-9-2.1-11.6-6.4c-2.6-4.3-3.9-10-3.9-17.1s1.3-12.8,3.9-17.1
		c2.6-4.3,6.4-6.4,11.6-6.4c5.2,0,9,2.1,11.6,6.4s3.8,10,3.8,17.1s-1.3,12.8-3.8,17.1C146.8,158.4,142.9,160.5,137.8,160.5z
		 M132.2,126.1c-1.2,2.8-1.8,6.4-1.8,11c0,4.5,0.6,8.2,1.8,11s3,4.2,5.5,4.2s4.3-1.4,5.5-4.2s1.8-6.4,1.8-11s-0.6-8.2-1.8-11
		s-3-4.2-5.5-4.2C135.3,121.9,133.4,123.3,132.2,126.1z"/>
	<path style="fill:#FFFFFF;" d="M157.9,114.6H173V160h-8v-36.8h-7.1V114.6z"/>
	<path style="fill:#FFFFFF;" d="M196.2,160.5c-5.2,0-9-2.1-11.6-6.4c-2.6-4.3-3.9-10-3.9-17.1s1.3-12.8,3.9-17.1
		c2.6-4.3,6.4-6.4,11.6-6.4c5.2,0,9,2.1,11.6,6.4s3.8,10,3.8,17.1s-1.3,12.8-3.8,17.1C205.3,158.4,201.4,160.5,196.2,160.5z
		 M190.7,126.1c-1.2,2.8-1.8,6.4-1.8,11c0,4.5,0.6,8.2,1.8,11s3,4.2,5.5,4.2s4.3-1.4,5.5-4.2s1.8-6.4,1.8-11s-0.6-8.2-1.8-11
		s-3-4.2-5.5-4.2C193.7,121.9,191.9,123.3,190.7,126.1z"/>
	<path style="fill:#FFFFFF;" d="M216.3,114.6h15.1V160h-8v-36.8h-7.1V114.6z"/>
	<path style="fill:#FFFFFF;" d="M254.7,160.5c-5.2,0-9-2.1-11.6-6.4c-2.6-4.3-3.9-10-3.9-17.1s1.3-12.8,3.9-17.1
		c2.6-4.3,6.4-6.4,11.6-6.4s9,2.1,11.6,6.4s3.8,10,3.8,17.1s-1.3,12.8-3.8,17.1C263.7,158.4,259.8,160.5,254.7,160.5z M249.2,126.1
		c-1.2,2.8-1.8,6.4-1.8,11c0,4.5,0.6,8.2,1.8,11s3,4.2,5.5,4.2c2.5,0,4.3-1.4,5.5-4.2s1.8-6.4,1.8-11s-0.6-8.2-1.8-11
		c-1.2-2.8-3-4.2-5.5-4.2C252.2,121.9,250.3,123.3,249.2,126.1z"/>
	<path style="fill:#FFFFFF;" d="M274.8,114.6h15.1V160h-8v-36.8h-7.1V114.6z"/>
	<path style="fill:#FFFFFF;" d="M313.1,160.5c-5.2,0-9-2.1-11.6-6.4c-2.6-4.3-3.9-10-3.9-17.1s1.3-12.8,3.9-17.1
		c2.6-4.3,6.4-6.4,11.6-6.4s9,2.1,11.6,6.4s3.8,10,3.8,17.1s-1.3,12.8-3.8,17.1C322.2,158.4,318.3,160.5,313.1,160.5z M307.6,126.1
		c-1.2,2.8-1.8,6.4-1.8,11c0,4.5,0.6,8.2,1.8,11c1.2,2.8,3,4.2,5.5,4.2s4.3-1.4,5.5-4.2s1.8-6.4,1.8-11s-0.6-8.2-1.8-11
		c-1.2-2.8-3-4.2-5.5-4.2C310.6,121.9,308.8,123.3,307.6,126.1z"/>
	<path style="fill:#FFFFFF;" d="M333.2,114.6h15.1V160h-8v-36.8h-7.1V114.6z"/>
	<path style="fill:#FFFFFF;" d="M354.8,114.6h15.1V160h-8v-36.8h-7.1V114.6z"/>
	<path style="fill:#FFFFFF;" d="M393.1,160.5c-5.2,0-9-2.1-11.6-6.4c-2.6-4.3-3.9-10-3.9-17.1s1.3-12.8,3.9-17.1
		c2.6-4.3,6.4-6.4,11.6-6.4s9,2.1,11.6,6.4s3.8,10,3.8,17.1s-1.3,12.8-3.8,17.1C402.2,158.4,398.3,160.5,393.1,160.5z M387.6,126.1
		c-1.2,2.8-1.8,6.4-1.8,11c0,4.5,0.6,8.2,1.8,11c1.2,2.8,3,4.2,5.5,4.2s4.3-1.4,5.5-4.2s1.8-6.4,1.8-11s-0.6-8.2-1.8-11
		c-1.2-2.8-3-4.2-5.5-4.2C390.6,121.9,388.8,123.3,387.6,126.1z"/>
	<path style="fill:#FFFFFF;" d="M99.4,192.6h15.1V238h-8v-36.8h-7.1V192.6z"/>
	<path style="fill:#FFFFFF;" d="M137.8,238.5c-5.2,0-9-2.1-11.6-6.4c-2.6-4.3-3.9-10-3.9-17.1s1.3-12.8,3.9-17.1
		c2.6-4.3,6.4-6.4,11.6-6.4c5.2,0,9,2.1,11.6,6.4c2.6,4.3,3.8,10,3.8,17.1s-1.3,12.8-3.8,17.1C146.8,236.4,142.9,238.5,137.8,238.5z
		 M132.2,204.1c-1.2,2.8-1.8,6.4-1.8,11c0,4.5,0.6,8.2,1.8,11s3,4.2,5.5,4.2s4.3-1.4,5.5-4.2s1.8-6.4,1.8-11s-0.6-8.2-1.8-11
		s-3-4.2-5.5-4.2C135.3,199.9,133.4,201.3,132.2,204.1z"/>
	<path style="fill:#FFFFFF;" d="M157.9,192.6H173V238h-8v-36.8h-7.1V192.6z"/>
	<path style="fill:#FFFFFF;" d="M196.2,238.5c-5.2,0-9-2.1-11.6-6.4c-2.6-4.3-3.9-10-3.9-17.1s1.3-12.8,3.9-17.1
		c2.6-4.3,6.4-6.4,11.6-6.4c5.2,0,9,2.1,11.6,6.4c2.6,4.3,3.8,10,3.8,17.1s-1.3,12.8-3.8,17.1C205.3,236.4,201.4,238.5,196.2,238.5z
		 M190.7,204.1c-1.2,2.8-1.8,6.4-1.8,11c0,4.5,0.6,8.2,1.8,11s3,4.2,5.5,4.2s4.3-1.4,5.5-4.2s1.8-6.4,1.8-11s-0.6-8.2-1.8-11
		s-3-4.2-5.5-4.2C193.7,199.9,191.9,201.3,190.7,204.1z"/>
	<path style="fill:#FFFFFF;" d="M216.3,192.6h15.1V238h-8v-36.8h-7.1V192.6z"/>
	<path style="fill:#FFFFFF;" d="M254.7,238.5c-5.2,0-9-2.1-11.6-6.4c-2.6-4.3-3.9-10-3.9-17.1s1.3-12.8,3.9-17.1
		c2.6-4.3,6.4-6.4,11.6-6.4s9,2.1,11.6,6.4c2.6,4.3,3.8,10,3.8,17.1s-1.3,12.8-3.8,17.1C263.7,236.4,259.8,238.5,254.7,238.5z
		 M249.2,204.1c-1.2,2.8-1.8,6.4-1.8,11c0,4.5,0.6,8.2,1.8,11s3,4.2,5.5,4.2c2.5,0,4.3-1.4,5.5-4.2s1.8-6.4,1.8-11s-0.6-8.2-1.8-11
		c-1.2-2.8-3-4.2-5.5-4.2C252.2,199.9,250.3,201.3,249.2,204.1z"/>
	<path style="fill:#FFFFFF;" d="M274.8,192.6h15.1V238h-8v-36.8h-7.1V192.6z"/>
	<path style="fill:#FFFFFF;" d="M313.1,238.5c-5.2,0-9-2.1-11.6-6.4c-2.6-4.3-3.9-10-3.9-17.1s1.3-12.8,3.9-17.1s6.4-6.4,11.6-6.4
		s9,2.1,11.6,6.4c2.6,4.3,3.8,10,3.8,17.1s-1.3,12.8-3.8,17.1C322.2,236.4,318.3,238.5,313.1,238.5z M307.6,204.1
		c-1.2,2.8-1.8,6.4-1.8,11c0,4.5,0.6,8.2,1.8,11c1.2,2.8,3,4.2,5.5,4.2s4.3-1.4,5.5-4.2s1.8-6.4,1.8-11s-0.6-8.2-1.8-11
		c-1.2-2.8-3-4.2-5.5-4.2C310.6,199.9,308.8,201.3,307.6,204.1z"/>
	<path style="fill:#FFFFFF;" d="M333.2,192.6h15.1V238h-8v-36.8h-7.1V192.6z"/>
	<path style="fill:#FFFFFF;" d="M371.6,238.5c-5.2,0-9-2.1-11.6-6.4c-2.6-4.3-3.9-10-3.9-17.1s1.3-12.8,3.9-17.1s6.4-6.4,11.6-6.4
		s9,2.1,11.6,6.4c2.6,4.3,3.8,10,3.8,17.1s-1.3,12.8-3.8,17.1C380.6,236.4,376.8,238.5,371.6,238.5z M366.1,204.1
		c-1.2,2.8-1.8,6.4-1.8,11c0,4.5,0.6,8.2,1.8,11c1.2,2.8,3,4.2,5.5,4.2s4.3-1.4,5.5-4.2s1.8-6.4,1.8-11s-0.6-8.2-1.8-11
		c-1.2-2.8-3-4.2-5.5-4.2S367.2,201.3,366.1,204.1z"/>
	<path style="fill:#FFFFFF;" d="M391.7,192.6h15.1V238h-8v-36.8h-7.1V192.6z"/>
	<path style="fill:#FFFFFF;" d="M99.4,270.5h15.1V316h-8v-36.8h-7.1V270.5z"/>
	<path style="fill:#FFFFFF;" d="M137.8,316.5c-5.2,0-9-2.1-11.6-6.4c-2.6-4.3-3.9-10-3.9-17.1s1.3-12.8,3.9-17.1
		c2.6-4.3,6.4-6.4,11.6-6.4c5.2,0,9,2.1,11.6,6.4s3.8,10,3.8,17.1s-1.3,12.8-3.8,17.1C146.8,314.3,142.9,316.5,137.8,316.5z
		 M132.2,282c-1.2,2.8-1.8,6.4-1.8,11c0,4.5,0.6,8.2,1.8,11s3,4.2,5.5,4.2s4.3-1.4,5.5-4.2c1.2-2.8,1.8-6.4,1.8-11s-0.6-8.2-1.8-11
		s-3-4.2-5.5-4.2C135.3,277.9,133.4,279.3,132.2,282z"/>
	<path style="fill:#FFFFFF;" d="M157.9,270.5H173V316h-8v-36.8h-7.1V270.5z"/>
	<path style="fill:#FFFFFF;" d="M196.2,316.5c-5.2,0-9-2.1-11.6-6.4s-3.9-10-3.9-17.1s1.3-12.8,3.9-17.1c2.6-4.3,6.4-6.4,11.6-6.4
		c5.2,0,9,2.1,11.6,6.4s3.8,10,3.8,17.1s-1.3,12.8-3.8,17.1C205.3,314.3,201.4,316.5,196.2,316.5z M190.7,282
		c-1.2,2.8-1.8,6.4-1.8,11c0,4.5,0.6,8.2,1.8,11s3,4.2,5.5,4.2s4.3-1.4,5.5-4.2c1.2-2.8,1.8-6.4,1.8-11s-0.6-8.2-1.8-11
		s-3-4.2-5.5-4.2C193.7,277.9,191.9,279.3,190.7,282z"/>
	<path style="fill:#FFFFFF;" d="M216.3,270.5h15.1V316h-8v-36.8h-7.1V270.5z"/>
	<path style="fill:#FFFFFF;" d="M254.7,316.5c-5.2,0-9-2.1-11.6-6.4s-3.9-10-3.9-17.1s1.3-12.8,3.9-17.1c2.6-4.3,6.4-6.4,11.6-6.4
		s9,2.1,11.6,6.4s3.8,10,3.8,17.1s-1.3,12.8-3.8,17.1C263.7,314.3,259.8,316.5,254.7,316.5z M249.2,282c-1.2,2.8-1.8,6.4-1.8,11
		c0,4.5,0.6,8.2,1.8,11s3,4.2,5.5,4.2c2.5,0,4.3-1.4,5.5-4.2c1.2-2.8,1.8-6.4,1.8-11s-0.6-8.2-1.8-11c-1.2-2.8-3-4.2-5.5-4.2
		C252.2,277.9,250.3,279.3,249.2,282z"/>
	<path style="fill:#FFFFFF;" d="M274.8,270.5h15.1V316h-8v-36.8h-7.1V270.5z"/>
	<path style="fill:#FFFFFF;" d="M313.1,316.5c-5.2,0-9-2.1-11.6-6.4s-3.9-10-3.9-17.1s1.3-12.8,3.9-17.1c2.6-4.3,6.4-6.4,11.6-6.4
		s9,2.1,11.6,6.4s3.8,10,3.8,17.1s-1.3,12.8-3.8,17.1C322.2,314.3,318.3,316.5,313.1,316.5z M307.6,282c-1.2,2.8-1.8,6.4-1.8,11
		c0,4.5,0.6,8.2,1.8,11c1.2,2.8,3,4.2,5.5,4.2s4.3-1.4,5.5-4.2c1.2-2.8,1.8-6.4,1.8-11s-0.6-8.2-1.8-11c-1.2-2.8-3-4.2-5.5-4.2
		C310.6,277.9,308.8,279.3,307.6,282z"/>
	<path style="fill:#FFFFFF;" d="M333.2,270.5h15.1V316h-8v-36.8h-7.1V270.5z"/>
	<path style="fill:#FFFFFF;" d="M371.6,316.5c-5.2,0-9-2.1-11.6-6.4s-3.9-10-3.9-17.1s1.3-12.8,3.9-17.1c2.6-4.3,6.4-6.4,11.6-6.4
		s9,2.1,11.6,6.4s3.8,10,3.8,17.1s-1.3,12.8-3.8,17.1C380.6,314.3,376.8,316.5,371.6,316.5z M366.1,282c-1.2,2.8-1.8,6.4-1.8,11
		c0,4.5,0.6,8.2,1.8,11c1.2,2.8,3,4.2,5.5,4.2s4.3-1.4,5.5-4.2c1.2-2.8,1.8-6.4,1.8-11s-0.6-8.2-1.8-11c-1.2-2.8-3-4.2-5.5-4.2
		S367.2,279.3,366.1,282z"/>
	<path style="fill:#FFFFFF;" d="M391.7,270.5h15.1V316h-8v-36.8h-7.1V270.5z"/>
	<path style="fill:#FFFFFF;" d="M99.4,348.5h15.1v45.4h-8v-36.8h-7.1V348.5z"/>
	<path style="fill:#FFFFFF;" d="M137.8,394.5c-5.2,0-9-2.1-11.6-6.4c-2.6-4.3-3.9-10-3.9-17.1s1.3-12.8,3.9-17.1
		c2.6-4.3,6.4-6.4,11.6-6.4c5.2,0,9,2.1,11.6,6.4s3.8,10,3.8,17.1s-1.3,12.8-3.8,17.1C146.8,392.3,142.9,394.5,137.8,394.5z
		 M132.2,360c-1.2,2.8-1.8,6.4-1.8,11c0,4.5,0.6,8.2,1.8,11s3,4.2,5.5,4.2s4.3-1.4,5.5-4.2c1.2-2.8,1.8-6.4,1.8-11s-0.6-8.2-1.8-11
		s-3-4.2-5.5-4.2C135.3,355.9,133.4,357.2,132.2,360z"/>
	<path style="fill:#FFFFFF;" d="M157.9,348.5H173v45.4h-8v-36.8h-7.1V348.5z"/>
	<path style="fill:#FFFFFF;" d="M196.2,394.5c-5.2,0-9-2.1-11.6-6.4s-3.9-10-3.9-17.1s1.3-12.8,3.9-17.1c2.6-4.3,6.4-6.4,11.6-6.4
		c5.2,0,9,2.1,11.6,6.4s3.8,10,3.8,17.1s-1.3,12.8-3.8,17.1C205.3,392.3,201.4,394.5,196.2,394.5z M190.7,360
		c-1.2,2.8-1.8,6.4-1.8,11c0,4.5,0.6,8.2,1.8,11s3,4.2,5.5,4.2s4.3-1.4,5.5-4.2c1.2-2.8,1.8-6.4,1.8-11s-0.6-8.2-1.8-11
		s-3-4.2-5.5-4.2C193.7,355.9,191.9,357.2,190.7,360z"/>
	<path style="fill:#FFFFFF;" d="M216.3,348.5h15.1v45.4h-8v-36.8h-7.1V348.5z"/>
	<path style="fill:#FFFFFF;" d="M254.7,394.5c-5.2,0-9-2.1-11.6-6.4s-3.9-10-3.9-17.1s1.3-12.8,3.9-17.1c2.6-4.3,6.4-6.4,11.6-6.4
		s9,2.1,11.6,6.4s3.8,10,3.8,17.1s-1.3,12.8-3.8,17.1C263.7,392.3,259.8,394.5,254.7,394.5z M249.2,360c-1.2,2.8-1.8,6.4-1.8,11
		c0,4.5,0.6,8.2,1.8,11s3,4.2,5.5,4.2c2.5,0,4.3-1.4,5.5-4.2c1.2-2.8,1.8-6.4,1.8-11s-0.6-8.2-1.8-11c-1.2-2.8-3-4.2-5.5-4.2
		C252.2,355.9,250.3,357.2,249.2,360z"/>
	<path style="fill:#FFFFFF;" d="M274.8,348.5h15.1v45.4h-8v-36.8h-7.1V348.5z"/>
	<path style="fill:#FFFFFF;" d="M313.1,394.5c-5.2,0-9-2.1-11.6-6.4s-3.9-10-3.9-17.1s1.3-12.8,3.9-17.1c2.6-4.3,6.4-6.4,11.6-6.4
		s9,2.1,11.6,6.4s3.8,10,3.8,17.1s-1.3,12.8-3.8,17.1C322.2,392.3,318.3,394.5,313.1,394.5z M307.6,360c-1.2,2.8-1.8,6.4-1.8,11
		c0,4.5,0.6,8.2,1.8,11c1.2,2.8,3,4.2,5.5,4.2s4.3-1.4,5.5-4.2c1.2-2.8,1.8-6.4,1.8-11s-0.6-8.2-1.8-11c-1.2-2.8-3-4.2-5.5-4.2
		C310.6,355.9,308.8,357.2,307.6,360z"/>
	<path style="fill:#FFFFFF;" d="M333.2,348.5h15.1v45.4h-8v-36.8h-7.1V348.5z"/>
	<path style="fill:#FFFFFF;" d="M371.6,394.5c-5.2,0-9-2.1-11.6-6.4s-3.9-10-3.9-17.1s1.3-12.8,3.9-17.1c2.6-4.3,6.4-6.4,11.6-6.4
		s9,2.1,11.6,6.4s3.8,10,3.8,17.1s-1.3,12.8-3.8,17.1C380.6,392.3,376.8,394.5,371.6,394.5z M366.1,360c-1.2,2.8-1.8,6.4-1.8,11
		c0,4.5,0.6,8.2,1.8,11c1.2,2.8,3,4.2,5.5,4.2s4.3-1.4,5.5-4.2c1.2-2.8,1.8-6.4,1.8-11s-0.6-8.2-1.8-11c-1.2-2.8-3-4.2-5.5-4.2
		S367.2,357.2,366.1,360z"/>
	<path style="fill:#FFFFFF;" d="M391.7,348.5h15.1v45.4h-8v-36.8h-7.1V348.5z"/>
</g>
<g>
</g>
<g>
</g>
<g>
</g>
<g>
</g>
<g>
</g>
<g>
</g>
<g>
</g>
<g>
</g>
<g>
</g>
<g>
</g>
<g>
</g>
<g>
</g>
<g>
</g>
<g>
</g>
<g>
</g>
</svg>
