<?xml version="1.0" encoding="iso-8859-1"?>
<!-- Generator: Adobe Illustrator 19.0.0, SVG Export Plug-In . SVG Version: 6.00 Build 0)  -->
<svg version="1.1" id="Layer_1" xmlns="http://www.w3.org/2000/svg" xmlns:xlink="http://www.w3.org/1999/xlink" x="0px" y="0px"
	 viewBox="0 0 512 512" style="enable-background:new 0 0 512 512;" xml:space="preserve">
<rect x="325.333" y="176" style="fill:#E8EAE9;" width="139.733" height="38.4"/>
<path style="fill:#F3F3F3;" d="M465.067,214.4V176h-128l-64-109.867c-3.2-6.4-10.667-10.667-18.133-10.667H116.267
	c-7.467,0-14.933,4.267-18.133,10.667l-68.267,118.4c-4.267,6.4-4.267,14.933,0,21.333l68.267,119.467
	C102.4,331.733,108.8,336,116.267,336h128L313.6,456.533h151.467v-38.4h-128L277.333,316.8L336,215.467h129.067V214.4z
	 M244.267,297.6H126.933L68.267,196.267l58.667-101.333h117.333l58.667,101.333L244.267,297.6z"/>
<circle style="fill:#F3705A;" cx="325.333" cy="195.2" r="45.867"/>
<ellipse transform="matrix(-0.7071 -0.7071 0.7071 -0.7071 396.2047 516.8406)" style="fill:#FFFFFF;" cx="305.144" cy="176.364" rx="6.4" ry="12.8"/>
<circle style="fill:#8AD7F8;" cx="466.133" cy="195.2" r="45.867"/>
<ellipse transform="matrix(-0.7071 -0.7071 0.7071 -0.7071 638.3794 616.5248)" style="fill:#FFFFFF;" cx="446.876" cy="176.05" rx="6.4" ry="12.8"/>
<circle style="fill:#415A6B;" cx="466.133" cy="437.333" r="45.867"/>
<ellipse transform="matrix(-0.7071 -0.7071 0.7071 -0.7071 467.434 1029.9019)" style="fill:#FFFFFF;" cx="447.017" cy="418.142" rx="6.4" ry="12.8"/>
<circle style="fill:#F3705A;" cx="325.333" cy="437.333" r="45.867"/>
<ellipse transform="matrix(-0.7071 -0.7071 0.7071 -0.7071 225.2744 930.1813)" style="fill:#FFFFFF;" cx="305.284" cy="418.435" rx="6.4" ry="12.8"/>
<circle style="fill:#FFD15C;" cx="254.933" cy="316.8" r="45.867"/>
<ellipse transform="matrix(-0.7071 -0.7071 0.7071 -0.7071 191.9969 672.8604)" style="fill:#FFFFFF;" cx="235.352" cy="296.666" rx="6.4" ry="12.8"/>
<circle style="fill:#415A6B;" cx="115.2" cy="316.8" r="45.867"/>
<ellipse transform="matrix(-0.7071 -0.7071 0.7071 -0.7071 -46.4608 574.2162)" style="fill:#FFFFFF;" cx="95.694" cy="296.73" rx="6.4" ry="12.8"/>
<circle style="fill:#8AD7F8;" cx="45.867" cy="195.2" r="45.867"/>
<ellipse transform="matrix(-0.7071 -0.7071 0.7071 -0.7071 -79.045 318.6057)" style="fill:#FFFFFF;" cx="26.463" cy="175.674" rx="6.4" ry="12.8"/>
<circle style="fill:#F3705A;" cx="115.2" cy="74.667" r="45.867"/>
<ellipse transform="matrix(-0.7071 -0.7071 0.7071 -0.7071 125.1509 162.6663)" style="fill:#FFFFFF;" cx="96.265" cy="55.414" rx="6.4" ry="12.8"/>
<circle style="fill:#FFD15C;" cx="254.933" cy="74.667" r="45.867"/>
<ellipse transform="matrix(-0.7071 -0.7071 0.7071 -0.7071 363.674 261.3589)" style="fill:#FFFFFF;" cx="235.966" cy="55.36" rx="6.4" ry="12.8"/>
<g>
</g>
<g>
</g>
<g>
</g>
<g>
</g>
<g>
</g>
<g>
</g>
<g>
</g>
<g>
</g>
<g>
</g>
<g>
</g>
<g>
</g>
<g>
</g>
<g>
</g>
<g>
</g>
<g>
</g>
</svg>
