<?xml version="1.0" encoding="iso-8859-1"?>
<!-- Generator: Adobe Illustrator 18.0.0, SVG Export Plug-In . SVG Version: 6.00 Build 0)  -->
<!DOCTYPE svg PUBLIC "-//W3C//DTD SVG 1.1//EN" "http://www.w3.org/Graphics/SVG/1.1/DTD/svg11.dtd">
<svg version="1.1" id="Capa_1" xmlns="http://www.w3.org/2000/svg" xmlns:xlink="http://www.w3.org/1999/xlink" x="0px" y="0px"
	 viewBox="0 0 56 56" style="enable-background:new 0 0 56 56;" xml:space="preserve">
<g>
	<g>
		<path style="fill:#545E73;" d="M49.455,8L49.455,8C48.724,3.538,38.281,0,25.5,0S2.276,3.538,1.545,8l0,0H1.5v0.5V20v0.5V21v11
			v0.5V33v12h0.045c0.731,4.461,11.175,8,23.955,8s23.224-3.539,23.955-8H49.5V33v-0.5V32V21v-0.5V20V8.5V8H49.455z"/>
		<g>
			<path style="fill:#38454F;" d="M25.5,41c-13.255,0-24-3.806-24-8.5V45h0.045c0.731,4.461,11.175,8,23.955,8
				s23.224-3.539,23.955-8H49.5V32.5C49.5,37.194,38.755,41,25.5,41z"/>
			<path style="fill:#38454F;" d="M1.5,32v0.5c0-0.168,0.018-0.334,0.045-0.5H1.5z"/>
			<path style="fill:#38454F;" d="M49.455,32c0.027,0.166,0.045,0.332,0.045,0.5V32H49.455z"/>
		</g>
		<g>
			<path style="fill:#556080;" d="M25.5,29c-13.255,0-24-3.806-24-8.5V33h0.045c0.731,4.461,11.175,8,23.955,8
				s23.224-3.539,23.955-8H49.5V20.5C49.5,25.194,38.755,29,25.5,29z"/>
			<path style="fill:#556080;" d="M1.5,20v0.5c0-0.168,0.018-0.334,0.045-0.5H1.5z"/>
			<path style="fill:#556080;" d="M49.455,20c0.027,0.166,0.045,0.332,0.045,0.5V20H49.455z"/>
		</g>
		<ellipse style="fill:#91BAE1;" cx="25.5" cy="8.5" rx="24" ry="8.5"/>
		<g>
			<path style="fill:#8697CB;" d="M25.5,17c-13.255,0-24-3.806-24-8.5V21h0.045c0.731,4.461,11.175,8,23.955,8
				s23.224-3.539,23.955-8H49.5V8.5C49.5,13.194,38.755,17,25.5,17z"/>
			<path style="fill:#8697CB;" d="M1.5,8v0.5c0-0.168,0.018-0.334,0.045-0.5H1.5z"/>
			<path style="fill:#8697CB;" d="M49.455,8C49.482,8.166,49.5,8.332,49.5,8.5V8H49.455z"/>
		</g>
	</g>
	<g>
		<path style="fill:#ED7161;" d="M42.5,39.2c0.969-2.183,3.109-4.2,5.684-4.2c3.467,0,5.964,2.821,6.278,6.183
			c0,0,0.17,0.835-0.203,2.337c-0.508,2.046-1.701,3.864-3.311,5.251L42.5,56l-8.447-7.229c-1.61-1.387-2.803-3.205-3.311-5.251
			c-0.373-1.502-0.203-2.337-0.203-2.337C30.852,37.821,33.349,35,36.816,35C39.391,35,41.531,37.017,42.5,39.2z"/>
	</g>
</g>
<g>
</g>
<g>
</g>
<g>
</g>
<g>
</g>
<g>
</g>
<g>
</g>
<g>
</g>
<g>
</g>
<g>
</g>
<g>
</g>
<g>
</g>
<g>
</g>
<g>
</g>
<g>
</g>
<g>
</g>
</svg>
