<?xml version="1.0" encoding="iso-8859-1"?>
<!-- Generator: Adobe Illustrator 19.0.0, SVG Export Plug-In . SVG Version: 6.00 Build 0)  -->
<svg version="1.1" id="Capa_1" xmlns="http://www.w3.org/2000/svg" xmlns:xlink="http://www.w3.org/1999/xlink" x="0px" y="0px"
	 viewBox="0 0 512 512" style="enable-background:new 0 0 512 512;" xml:space="preserve">
<circle style="fill:#C46B35;" cx="256" cy="256" r="256"/>
<path style="fill:#535B70;" d="M424.532,448.699c-45.025,39.414-103.988,63.3-168.532,63.3s-123.507-23.886-168.532-63.3
	c15.067-41.535,51.785-72.673,96.507-79.809c6.374-1.014,12.925-1.546,19.592-1.546h104.866c6.677,0,13.218,0.533,19.602,1.546
	C372.757,376.016,409.475,407.164,424.532,448.699z"/>
<path style="fill:#42495B;" d="M114.678,448.699c15.067-41.535,51.785-72.673,96.507-79.809c6.374-1.014,12.925-1.546,19.592-1.546
	h-27.209c-6.666,0-13.218,0.533-19.592,1.546c-44.722,7.137-81.439,38.275-96.507,79.809c6.864,6.008,14.055,11.651,21.536,16.907
	C111.087,459.78,113.028,454.106,114.678,448.699z"/>
<path style="fill:#6E7789;" d="M135.379,234.747L135.379,234.747c-2.847,0-5.156-2.308-5.156-5.156v-3.608
	c0-2.847,2.308-5.156,5.156-5.156l0,0c2.847,0,5.156,2.308,5.156,5.156v3.608C140.535,232.439,138.226,234.747,135.379,234.747z"/>
<path style="fill:#42495B;" d="M328.034,368.888v3.393c0,39.723-32.313,72.037-72.026,72.037c-11.887,0-23.67-2.966-34.079-8.563
	c-6.128-3.266-11.829-7.501-16.86-12.534c-11.875-11.875-19.262-27.594-20.797-44.27c-0.208-2.354-0.3-4.559-0.3-6.671v-3.393
	c6.382-1.016,12.925-1.546,19.596-1.546h104.87C315.108,367.341,321.652,367.872,328.034,368.888z"/>
<path style="fill:#F9C1A5;" d="M308.413,320.45v51.829c0,28.955-23.462,52.418-52.406,52.418c-8.967,0-17.404-2.251-24.778-6.22
	c-4.547-2.423-8.679-5.516-12.291-9.128c-8.414-8.414-13.976-19.665-15.13-32.199c-0.139-1.604-0.219-3.232-0.219-4.87v-51.829
	h104.824V320.45z"/>
<g>
	<path style="fill:#E5AB91;" d="M308.413,335.454v26.763c-16.18,8.482-34.599,13.295-54.137,13.295
		c-1.858,0-3.716-0.046-5.563-0.139c-0.265-0.011-0.519-0.023-0.773-0.023c-9.187,0-16.711,7.524-16.711,16.803v26.324
		c-4.547-2.423-8.679-5.516-12.291-9.128c-8.414-8.414-13.976-19.665-15.13-32.199c-0.139-1.604-0.219-3.232-0.219-4.87v-36.826
		H308.413z"/>
	<circle style="fill:#E5AB91;" cx="154.384" cy="221.968" r="32.392"/>
	<circle style="fill:#E5AB91;" cx="357.616" cy="221.968" r="32.392"/>
</g>
<path style="fill:#F9C1A5;" d="M256.001,0L256.001,0c-64.456,0-116.708,52.251-116.708,116.707v130.558
	c0,64.456,52.251,116.707,116.707,116.707l0,0c64.456,0,116.707-52.251,116.707-116.707V116.707C372.708,52.251,320.457,0,256.001,0
	z"/>
<path style="fill:#535B70;" d="M350.783,116.704c0,31.932-15.872,38.149-40.145,38.149c-15.454,0-34.304-2.518-54.638-2.518
	c-52.266,0-94.783,16.635-94.783-35.631c0-26.122,10.627-49.821,27.794-66.978c5.611-5.611,11.922-10.533,18.798-14.608
	c14.127-8.38,30.605-13.187,48.191-13.187s34.064,4.807,48.191,13.187C332.058,51.638,350.783,82.034,350.783,116.704z"/>
<path style="fill:#E5AB91;" d="M310.638,161.122c-7.414,0-15.49-0.556-24.04-1.144c-9.807-0.675-19.949-1.373-30.598-1.373
	c-10.645,0-20.788,0.698-30.598,1.373c-8.55,0.588-16.626,1.143-24.037,1.144c-10.427,0-23.609-0.96-33.07-8.451
	c-8.982-7.112-13.348-18.876-13.348-35.966c0-26.954,10.523-52.315,29.632-71.413c6.015-6.015,12.756-11.254,20.033-15.567
	c15.508-9.2,33.279-14.063,51.387-14.063c18.109,0,35.879,4.863,51.389,14.063c30.632,18.159,49.663,51.487,49.663,86.977
	C357.052,155.844,333.589,161.122,310.638,161.122z"/>
<path style="fill:#535B70;" d="M350.786,116.704c0,4.336-0.293,8.202-0.867,11.64c0,0,0,0,0,0.01
	c-0.606,3.647-1.515,6.823-2.717,9.571c-3.793,8.704-10.459,13.176-19.299,15.276c-0.282,0.073-0.564,0.136-0.846,0.199
	c-4.88,1.066-10.386,1.452-16.415,1.452c-1.578,0-3.187-0.021-4.838-0.073c-2.445-0.073-4.974-0.188-7.565-0.334
	c-5.392-0.303-11.065-0.721-16.969-1.118c-1.578-0.104-3.166-0.209-4.775-0.293c-3.062-0.188-6.175-0.355-9.341-0.47
	c-3.062-0.125-6.165-0.199-9.31-0.219c-0.606-0.01-1.223-0.01-1.839-0.01c-8.328,0-16.415,0.418-24.116,0.92
	c-4.618,0.303-9.091,0.627-13.406,0.909c-2.403,0.157-4.744,0.293-7.043,0.408c-3.459,0.178-6.781,0.282-9.968,0.282
	c-3.176,0-6.207-0.104-9.07-0.355c-2.476-0.219-4.838-0.543-7.063-1.014c-14.994-3.145-24.116-12.57-24.116-36.78
	c0-4.775,0.355-9.467,1.045-14.043c3.051-20.522,12.716-38.912,26.749-52.935c0.554-0.554,1.118-1.108,1.693-1.64
	c3.636-3.48,7.555-6.666,11.724-9.529c1.745-1.202,3.542-2.351,5.381-3.438c5.214-3.093,10.742-5.695,16.52-7.743
	c6.228-2.215,12.748-3.793,19.487-4.65c1.024-0.146,2.048-0.261,3.082-0.355c2.999-0.293,6.029-0.439,9.101-0.439
	c10.867,0,21.316,1.839,31.044,5.214c6.019,2.1,11.755,4.775,17.147,7.973c0.324,0.199,0.648,0.387,0.972,0.596
	c2.55,1.546,5.026,3.218,7.408,5.005c0.731,0.533,1.452,1.097,2.173,1.661c8.453,6.687,15.736,14.775,21.483,23.928
	c2.341,3.709,4.42,7.586,6.238,11.609c1.212,2.675,2.299,5.433,3.25,8.244c0.021,0.042,0.031,0.073,0.042,0.115
	c0.01,0,0.01,0,0.01,0c2.027,5.956,3.479,12.184,4.274,18.61c0.261,2.132,0.46,4.295,0.585,6.468v0.01
	C350.734,113.13,350.786,114.906,350.786,116.704z"/>
<g>
	<path style="fill:#E5AB91;" d="M288.738,222.559c0,0-2.398,11.746,19.065,20.075c0.963,0.374,2.06,0.155,2.79-0.576l0,0
		c1.138-1.138,0.984-3.038-0.343-3.948c-2.915-1.998-6.932-5.945-5.537-11.975"/>
	<path style="fill:#E5AB91;" d="M230.67,222.559c0,0,2.398,11.746-19.065,20.075c-0.963,0.374-2.059,0.155-2.79-0.576l0,0
		c-1.138-1.138-0.984-3.038,0.343-3.948c2.915-1.998,6.932-5.945,5.537-11.975"/>
	<path style="fill:#E5AB91;" d="M230.67,216.415c-0.65,5.379-5.398,9.328-10.816,9.328h-28.157c-2.94,0-5.604-1.189-7.533-3.118
		c-2.208-2.214-3.457-5.396-3.039-8.856c0.65-5.379,5.398-9.328,10.816-9.328h28.157c2.94,0,5.604,1.189,7.533,3.118
		C229.84,209.774,231.088,212.955,230.67,216.415z"/>
</g>
<path style="fill:#FFFFFF;" d="M230.67,223.883c-0.65,5.379-5.398,9.328-10.816,9.328h-28.157c-2.94,0-5.604-1.189-7.533-3.118
	c-2.208-2.214-3.457-5.396-3.039-8.856c0.65-5.379,5.398-9.328,10.816-9.328h28.157c2.94,0,5.604,1.189,7.533,3.118
	C229.84,217.242,231.088,220.423,230.67,223.883z"/>
<path style="fill:#E5AB91;" d="M327.789,204.442h-28.4c-5.882,0-10.65,4.768-10.65,10.65l0,0c0,5.882,4.768,10.65,10.65,10.65h28.4
	c5.882,0,10.65-4.768,10.65-10.65l0,0C338.438,209.209,333.67,204.442,327.789,204.442z"/>
<path style="fill:#FFFFFF;" d="M327.789,211.909h-28.4c-5.882,0-10.65,4.768-10.65,10.65l0,0c0,5.882,4.768,10.65,10.65,10.65h28.4
	c5.882,0,10.65-4.768,10.65-10.65l0,0C338.438,216.677,333.67,211.909,327.789,211.909z"/>
<path style="fill:#535B70;" d="M337,183.164h-46.825c-3.315,0-6.003,2.687-6.003,6.003l0,0c0,3.315,2.687,6.003,6.003,6.003H337
	c3.315,0,6.003-2.687,6.003-6.003l0,0C343.003,185.852,340.316,183.164,337,183.164z"/>
<path style="fill:#4ACC9A;" d="M220.064,219.045c0,7.822-6.343,14.166-14.166,14.166c-7.822,0-14.166-6.343-14.166-14.166
	c0-2.604,0.704-5.042,1.935-7.136h24.461C219.36,214.003,220.064,216.441,220.064,219.045z"/>
<g>
	<circle style="fill:#60D89E;" cx="210.913" cy="218.823" r="5.733"/>
	<circle style="fill:#60D89E;" cx="200.38" cy="226.137" r="3.353"/>
</g>
<path style="fill:#4ACC9A;" d="M327.753,219.045c0,7.822-6.343,14.166-14.166,14.166c-7.822,0-14.166-6.343-14.166-14.166
	c0-2.604,0.704-5.042,1.935-7.136h24.461C327.049,214.003,327.753,216.441,327.753,219.045z"/>
<g>
	<circle style="fill:#60D89E;" cx="318.61" cy="218.823" r="5.733"/>
	<circle style="fill:#60D89E;" cx="308.067" cy="226.137" r="3.353"/>
</g>
<g>
	<path style="fill:#E5AB91;" d="M182.685,183.164c-3.305,0-6.141,2.586-6.2,5.89c-0.062,3.367,2.649,6.115,6.002,6.115h32.897
		c13.062,0,23.65,10.589,23.65,23.65v58.596h5.96c7.656,0,13.863-6.207,13.863-13.863v-62.329c0-9.975-8.086-18.061-18.061-18.061
		h-58.11V183.164z"/>
	<path style="fill:#E5AB91;" d="M276.021,298.763c-13.001,4.283-27.042,4.283-40.043,0c-3.474-1.133-7.443,0.224-8.988,3.476l0,0
		c-1.544,3.239,0.588,7.466,4.915,8.888c15.645,5.156,32.543,5.156,48.189,0c4.326-1.422,6.459-5.649,4.915-8.888l0,0
		C283.465,298.987,279.496,297.631,276.021,298.763z"/>
	<path style="fill:#E5AB91;" d="M261.49,321.574h-10.979c-2.799,0-5.069,2.27-5.069,5.069l0,0c0,2.799,2.27,5.069,5.069,5.069
		h10.979c2.799,0,5.069-2.27,5.069-5.069l0,0C266.559,323.843,264.289,321.574,261.49,321.574z"/>
</g>
<path style="fill:#535B70;" d="M229.51,183.164h-46.825c-3.315,0-6.003,2.687-6.003,6.003l0,0c0,3.315,2.687,6.003,6.003,6.003
	h46.825c3.315,0,6.003-2.687,6.003-6.003l0,0C235.513,185.852,232.825,183.164,229.51,183.164z"/>
<path style="fill:#E5AB91;" d="M161.22,247.265V116.707c0-60.758,46.43-110.663,105.744-116.191C263.354,0.18,259.699,0,256.001,0
	l0,0c-64.456,0-116.707,52.251-116.707,116.707v130.558c0,64.456,52.251,116.707,116.707,116.707l0,0
	c3.698,0,7.354-0.18,10.964-0.516C207.65,357.928,161.22,308.022,161.22,247.265z"/>
<path style="fill:#F9F9F9;" d="M284.623,138.657l-7.774-3.636c-1.108-0.512-1.745-1.682-1.609-2.905
	c0.428-3.783,0.334-7.555-0.251-11.222c-0.188-1.212,0.397-2.414,1.484-2.978l7.628-3.971c1.317-0.69,1.881-2.278,1.275-3.647
	l-4.232-9.655c-0.606-1.358-2.163-2.027-3.563-1.515l-8.077,2.936c-1.149,0.408-2.435,0.042-3.197-0.93
	c-2.309-2.905-5.026-5.528-8.098-7.764c-0.993-0.721-1.421-1.985-1.055-3.156l2.581-8.182c0.449-1.432-0.282-2.957-1.672-3.49
	l-9.822-3.824c-1.39-0.543-2.957,0.084-3.594,1.442l-1.233,2.654l-2.393,5.12c-0.522,1.108-1.693,1.745-2.915,1.609
	c-3.772-0.428-7.544-0.334-11.212,0.24c-1.212,0.199-2.424-0.387-2.988-1.473l-3.96-7.628c-0.69-1.327-2.288-1.881-3.657-1.285
	l-7.001,3.082l-2.644,1.16c-1.369,0.606-2.027,2.163-1.526,3.553l2.936,8.088c0.418,1.149,0.042,2.435-0.93,3.197
	c-2.905,2.309-5.527,5.026-7.764,8.098c-0.721,0.993-1.985,1.421-3.156,1.055l-8.182-2.591c-1.421-0.439-2.947,0.282-3.49,1.672
	l-3.824,9.822c-0.533,1.39,0.094,2.968,1.442,3.594l7.774,3.636c1.108,0.522,1.745,1.693,1.609,2.905
	c-0.428,3.783-0.334,7.555,0.251,11.222c0.188,1.212-0.397,2.414-1.484,2.978l-7.617,3.971c-1.327,0.69-1.891,2.278-1.296,3.647
	l3.95,8.997c2.226,0.47,4.587,0.794,7.064,1.014l4.869-1.766c1.149-0.418,2.435-0.042,3.197,0.92
	c0.324,0.408,0.658,0.805,1.003,1.202c5.298,0,10.992-0.303,17.011-0.69c4.315-0.282,8.788-0.606,13.406-0.909
	c7.701-0.502,15.788-0.92,24.116-0.92c3.772,0,7.492,0.084,11.149,0.23c0.084-0.115,0.178-0.23,0.261-0.355
	c0.721-0.982,1.985-1.421,3.145-1.055l5.935,1.881c1.609,0.084,3.197,0.188,4.775,0.293c0.428-0.303,0.763-0.731,0.972-1.254
	l3.824-9.822C286.608,140.862,285.981,139.284,284.623,138.657z M250.12,134.937c-3.824,8.516-13.625,12.821-22.486,9.885
	c-10.355-3.438-15.444-15.015-10.982-24.963c3.824-8.516,13.636-12.831,22.497-9.885C249.493,113.412,254.582,124.99,250.12,134.937
	z"/>
<path style="fill:#E8E8E8;" d="M233.392,92.462c-19.299,0-34.931,15.642-34.931,34.931c0,10.982,5.057,20.773,12.978,27.178
	c2.299-0.115,4.639-0.251,7.043-0.408c4.315-0.282,8.788-0.606,13.406-0.909c7.701-0.502,15.788-0.92,24.116-0.92
	c0.616,0,1.233,0,1.839,0.01c6.468-6.343,10.48-15.172,10.48-24.952C268.322,108.104,252.68,92.462,233.392,92.462z M250.12,134.937
	c-3.824,8.516-13.625,12.821-22.486,9.885c-10.355-3.438-15.444-15.015-10.982-24.963c3.824-8.516,13.636-12.831,22.497-9.885
	C249.493,113.412,254.582,124.99,250.12,134.937z"/>
<g>
	<path style="fill:#F9F9F9;" d="M330.828,136.139c-9.132-5.945-11.118-18.442-4.274-26.927c5.663-7.032,15.757-8.84,23.489-4.326
		c-0.794-6.426-2.247-12.654-4.274-18.61c0,0,0,0-0.01,0c-0.961-2.853-2.058-5.642-3.291-8.359
		c-1.818-4.023-3.897-7.899-6.238-11.609l-6.301,1.014l-2.853,0.449c-1.473,0.23-2.518,1.567-2.382,3.051l0.794,8.558
		c0.115,1.223-0.585,2.361-1.714,2.863c-3.396,1.494-6.614,3.448-9.571,5.851c-0.951,0.784-2.278,0.878-3.312,0.219l-7.262-4.577
		c-1.254-0.784-2.915-0.47-3.793,0.731l-6.196,8.537c-0.878,1.202-0.669,2.884,0.481,3.835l6.604,5.496
		c0.94,0.773,1.254,2.069,0.815,3.218c-1.369,3.542-2.236,7.22-2.612,10.919c-0.115,1.223-0.993,2.226-2.184,2.497l-8.38,1.902
		c-1.452,0.334-2.403,1.735-2.173,3.208l1.651,10.418c0.24,1.463,1.567,2.508,3.051,2.372l8.558-0.784
		c1.233-0.115,2.372,0.575,2.863,1.703c1.505,3.396,3.459,6.614,5.862,9.561c0.773,0.951,0.878,2.288,0.219,3.323l-2.591,4.106
		c1.651,0.052,3.26,0.073,4.838,0.073c6.029,0,11.536-0.387,16.415-1.452c9.258-2.017,16.227-6.489,20.146-15.475
		C341.915,139.879,335.812,139.378,330.828,136.139z"/>
	<path style="fill:#F9F9F9;" d="M205.085,62.348l-1.285-8.067c-0.178-1.139-1.212-1.944-2.361-1.829l-6.614,0.606
		c-0.951,0.084-1.829-0.449-2.215-1.317c-0.554-1.254-1.181-2.476-1.902-3.657c-0.575,0.533-1.139,1.087-1.693,1.64
		c-14.033,14.023-23.698,32.413-26.749,52.935l0.648,2.853c0.261,1.128,1.348,1.86,2.476,1.682l8.067-1.285
		c1.128-0.178,1.944-1.212,1.829-2.361l-0.606-6.614c-0.084-0.951,0.449-1.829,1.317-2.215c2.633-1.16,5.13-2.675,7.408-4.535
		c0.731-0.596,1.766-0.679,2.56-0.178l5.632,3.542c0.972,0.616,2.257,0.376,2.936-0.564l4.786-6.593
		c0.679-0.94,0.522-2.236-0.366-2.968l-5.11-4.253c-0.731-0.606-0.982-1.609-0.637-2.487c1.066-2.748,1.735-5.59,2.017-8.453
		c0.094-0.94,0.773-1.724,1.703-1.933l6.478-1.473C204.531,64.563,205.263,63.477,205.085,62.348z"/>
</g>
<path style="fill:#E8E8E8;" d="M330.828,136.139c-9.132-5.945-11.118-18.442-4.274-26.927c5.663-7.032,15.757-8.84,23.489-4.326
	c-0.794-6.426-2.247-12.654-4.274-18.61c0,0,0,0-0.01,0c-0.01-0.042-0.021-0.073-0.042-0.115
	c-17.324-2.476-34.126,8.38-38.682,25.715c-4.524,17.272,4.681,34.91,20.867,41.326c8.84-2.1,15.506-6.572,19.299-15.276
	C341.915,139.879,335.812,139.378,330.828,136.139z"/>
<path style="fill:#F9F9F9;" d="M321.675,50.29l-7.899-6.572c-0.899-0.742-1.327-1.881-1.202-2.999
	c-2.685-2.017-5.486-3.887-8.38-5.601c-5.392-3.197-11.128-5.872-17.147-7.973c-0.763,2.947-2.152,5.789-4.2,8.338
	c-7.011,8.704-19.675,10.71-29.048,4.618c-6.207-4.044-9.655-10.606-9.979-17.377c-13.009,1.661-25.192,5.977-36.007,12.392
	c-1.839,1.087-3.636,2.236-5.381,3.438c0.449,1.536,1.933,2.57,3.563,2.424l10.24-0.94c1.473-0.136,2.832,0.69,3.427,2.038
	c1.797,4.065,4.138,7.92,7.022,11.452c0.92,1.139,1.045,2.727,0.261,3.971l-5.475,8.704c-0.961,1.505-0.575,3.49,0.867,4.545
	l10.209,7.408c1.452,1.045,3.459,0.794,4.598-0.575l6.572-7.91c0.94-1.128,2.497-1.505,3.856-0.982
	c4.253,1.651,8.652,2.685,13.072,3.135c1.463,0.146,2.675,1.191,2.999,2.623l2.278,10.031c0.397,1.735,2.079,2.873,3.835,2.591
	l12.476-1.975c1.755-0.282,2.999-1.881,2.842-3.657l-0.94-10.24c-0.136-1.463,0.69-2.832,2.027-3.427
	c4.075-1.787,7.931-4.138,11.463-7.022c1.139-0.92,2.727-1.045,3.971-0.261l8.704,5.475c1.505,0.961,3.49,0.575,4.545-0.867
	l7.408-10.209C323.305,53.435,323.054,51.429,321.675,50.29z"/>
<g>
	<path style="fill:#E8E8E8;" d="M304.194,35.118c-5.392-3.197-11.128-5.872-17.147-7.973c-0.763,2.947-2.152,5.789-4.2,8.338
		c-7.011,8.704-19.675,10.71-29.048,4.618c-6.207-4.044-9.655-10.606-9.979-17.377c-6.74,0.857-13.26,2.435-19.487,4.65
		c2.236,16.238,13.97,30.323,30.814,34.743c21.18,5.559,42.83-6.154,50.019-26.405C304.842,35.505,304.518,35.317,304.194,35.118z"
		/>
	<circle style="fill:#E8E8E8;" cx="233.388" cy="127.582" r="9.752"/>
	<circle style="fill:#E8E8E8;" cx="341.514" cy="121.313" r="6.896"/>
</g>
<g>
</g>
<g>
</g>
<g>
</g>
<g>
</g>
<g>
</g>
<g>
</g>
<g>
</g>
<g>
</g>
<g>
</g>
<g>
</g>
<g>
</g>
<g>
</g>
<g>
</g>
<g>
</g>
<g>
</g>
</svg>
