<?xml version="1.0" encoding="iso-8859-1"?>
<!-- Generator: Adobe Illustrator 19.0.0, SVG Export Plug-In . SVG Version: 6.00 Build 0)  -->
<svg version="1.1" id="Layer_1" xmlns="http://www.w3.org/2000/svg" xmlns:xlink="http://www.w3.org/1999/xlink" x="0px" y="0px"
	 viewBox="0 0 505 505" style="enable-background:new 0 0 505 505;" xml:space="preserve">
<circle style="fill:#90DFAA;" cx="252.5" cy="252.5" r="252.5"/>
<path style="fill:#324A5E;" d="M404.1,122.9H100.9c-12.5,0-22.6,10.1-22.6,22.6v44.8h348.3v-44.8C426.7,133,416.6,122.9,404.1,122.9
	z"/>
<path style="fill:#FFFFFF;" d="M281.7,169.8l-11.3-17h-62.9l-11.4,17H78.3v189.8c0,12.5,10.1,22.6,22.6,22.6h303.2
	c12.5,0,22.6-10.1,22.6-22.6V169.8H281.7z"/>
<polygon style="fill:#84DBFF;" points="110.6,169.8 196.1,169.8 184.8,152.8 121.9,152.8 "/>
<circle style="fill:#FF7058;" cx="394.4" cy="147.7" r="10.1"/>
<circle style="fill:#84DBFF;" cx="355.6" cy="147.7" r="10.1"/>
<g>
	<path style="fill:#FF7058;" d="M139.3,281.4v-17.9l63.5-29.9v19.2l-41.9,19.3l41.9,19.9v19.3L139.3,281.4z"/>
	<path style="fill:#FF7058;" d="M270.7,218.9h18.5l-54.9,119.8h-18.4L270.7,218.9z"/>
	<path style="fill:#FF7058;" d="M365.7,263.5v17.9l-63.5,29.9V292l41.9-19.9l-41.9-19.3v-19.2L365.7,263.5z"/>
</g>
<g>
</g>
<g>
</g>
<g>
</g>
<g>
</g>
<g>
</g>
<g>
</g>
<g>
</g>
<g>
</g>
<g>
</g>
<g>
</g>
<g>
</g>
<g>
</g>
<g>
</g>
<g>
</g>
<g>
</g>
</svg>
