<?xml version="1.0" encoding="iso-8859-1"?>
<!-- Generator: Adobe Illustrator 19.0.0, SVG Export Plug-In . SVG Version: 6.00 Build 0)  -->
<svg version="1.1" id="Layer_1" xmlns="http://www.w3.org/2000/svg" xmlns:xlink="http://www.w3.org/1999/xlink" x="0px" y="0px"
	 viewBox="0 0 481.882 481.882" style="enable-background:new 0 0 481.882 481.882;" xml:space="preserve">
<g>
	<path style="fill:#E56353;" d="M120.902,243.953V225.28l66.861-31.925v20.48l-44.574,20.48l44.574,21.082v20.48L120.902,243.953z"
		/>
	<path style="fill:#E56353;" d="M260.046,177.694h19.878l-57.826,126.494h-19.275L260.046,177.694z"/>
	<path style="fill:#E56353;" d="M360.639,224.678v19.275l-66.861,31.925v-20.48l44.574-21.082l-44.574-20.48v-20.48L360.639,224.678
		z"/>
</g>
<path style="fill:#27A2DB;" d="M437.137,302.984c6.024-19.878,9.638-40.358,9.638-62.042s-3.614-42.767-9.638-62.042l21.685-20.48
	c4.819-4.216,6.024-11.445,2.409-17.468l-23.492-40.96c-3.012-5.421-10.24-8.433-16.264-6.626l-28.311,8.433
	c-28.311-30.72-65.656-53.007-107.821-62.042l-7.228-28.913C276.309,4.216,270.888,0,264.262,0h-47.586
	c-6.626,0-12.047,4.216-13.854,10.842l-7.228,28.913c-42.165,9.035-79.511,31.322-107.821,62.042l-27.708-8.433
	c-6.024-1.807-13.252,0.602-16.264,6.626l-23.492,40.96c-3.012,5.421-2.409,12.649,2.409,17.468l21.685,20.48
	c-6.024,19.878-9.638,40.358-9.638,62.042s3.614,42.767,9.638,62.042l-21.685,20.48c-4.819,4.216-6.024,11.445-2.409,17.468
	l23.492,40.96c3.012,5.421,10.24,8.433,16.264,6.626l28.311-8.433c28.311,30.72,65.656,53.007,107.821,62.042l7.228,28.913
	c1.807,6.626,7.228,10.842,13.854,10.842h47.586c6.626,0,12.047-4.216,13.854-10.842l7.228-28.913
	c42.165-9.035,79.511-31.322,107.821-62.042l28.311,8.433c6.024,1.807,13.252-0.602,16.264-6.626l23.492-40.96
	c3.012-5.421,2.409-12.649-2.409-17.468L437.137,302.984z M240.77,404.179c-90.353,0-163.238-72.885-163.238-163.238
	S150.417,77.704,240.77,77.704s163.238,72.885,163.238,163.238S331.123,404.179,240.77,404.179z"/>
<path style="fill:#2D93BA;" d="M240.77,77.704c-90.353,0-163.238,72.885-163.238,163.238s72.885,163.238,163.238,163.238
	s163.238-72.885,163.238-163.238S331.123,77.704,240.77,77.704z M240.77,386.108c-80.113,0-145.167-65.054-145.167-145.167
	S160.657,95.774,240.77,95.774s145.167,65.054,145.167,145.167S320.883,386.108,240.77,386.108z"/>
<g>
</g>
<g>
</g>
<g>
</g>
<g>
</g>
<g>
</g>
<g>
</g>
<g>
</g>
<g>
</g>
<g>
</g>
<g>
</g>
<g>
</g>
<g>
</g>
<g>
</g>
<g>
</g>
<g>
</g>
</svg>
